<svg id="Capa_1" enable-background="new 0 0 512 512" height="512" viewBox="0 0 512 512" width="512" xmlns="http://www.w3.org/2000/svg"><g><path d="m256 138.039c-16.542 0-30 13.458-30 30v41.861c0 5.523 4.477 10 10 10h40c5.522 0 10-4.477 10-10v-41.861c0-16.542-13.458-30-30-30zm10 61.861h-20v-31.861c0-5.514 4.486-10 10-10s10 4.486 10 10z"/><path d="m431.772 452h-86.311l-19.477-352.027h-.005c-.096-1.744-.644-3.464-1.644-4.973l-60-90.525c-1.852-2.794-4.982-4.475-8.335-4.475-3.354 0-6.483 1.681-8.335 4.475l-60 90.525c-1 1.509-1.548 3.229-1.644 4.973h-.005l-19.478 352.027h-86.31c-5.522 0-10 4.477-10 10v40c0 5.523 4.478 10 10 10h130.772c5.523 0 10-4.477 10-10s-4.477-10-10-10h-120.772v-20h331.545v20h-120.773c-5.522 0-10 4.477-10 10s4.478 10 10 10h130.772c5.522 0 10-4.477 10-10v-40c0-5.523-4.477-10-10-10zm-175.772-423.899 41.375 62.424h-82.75zm-50.538 82.424h101.077l18.893 341.475h-138.864z"/><circle cx="256" cy="502" r="10"/></g></svg>