<svg id="_x33_0" enable-background="new 0 0 64 64" height="512" viewBox="0 0 64 64" width="512" xmlns="http://www.w3.org/2000/svg"><g><g><path d="m49.463 20.095-21.215 24.246 5.411 5.411 24.246-21.215 2.412-10.854z" fill="#f0bc5e"/></g><g><path d="m49.463 20.095-21.215 24.246 5.411 5.411 24.246-21.215 2.412-10.854z" fill="#f0bc5e"/></g><g><path d="m48.55 23.5h9.899v2h-9.899z" transform="matrix(.707 -.707 .707 .707 -1.654 45.006)"/><path d="m53.605 32.299-1.505 1.317c.169.222.323.468.463.748.291.578.437 1.193.437 1.828v2.676c0 .349-.186.678-.486.857l-2.217 1.331c-1.029.617-2.209.944-3.409.944-1.129 0-2.176-.46-2.94-1.251l-1.498 1.311c.176.185.355.367.55.529v6.996l-3.536 3.536c-.944.945-1.464 2.2-1.464 3.536v3.343h-8.777c.49-.724.777-1.597.777-2.536 0-1.095-.403-2.119-1.11-2.941l1.11-1.11 2 2 4.414-4.413-4-4 16.293-16.293-1.414-1.414-16.293 16.293-4-4-4.414 4.414 2 2-1.086 1.086-2.207-2.207c-.189-.189-.293-.441-.293-.708v-3.59c.524-.433.986-.946 1.343-1.542l.849-1.415c1.875 1.483 4.237 2.376 6.808 2.376h.296l1.922-2.196-.804-.804 1.586-1.586.698.698 1.32-1.508-.604-.604 1.586-1.586.498.498 1.32-1.508-.404-.404 1-1h.632l1.75-2h-1.849l4.107-3.594-1.334-11.34c-.383-3.264-2.699-5.876-5.72-6.75v-.316c0-2.074-1.592-3.764-3.615-3.961l-2.048-1.536c-1.292-.969-2.893-1.503-4.508-1.503-2.091 0-4.057.814-5.536 2.293s-2.293 3.444-2.293 5.536v7.239c0 1.031-.34 2.053-.996 2.927-.942 1.255-2.439 2.005-4.004 2.005h-2.414l3.293 3.293c1.1 1.101 2.564 1.707 4.121 1.707 1.037 0 2.071-.182 3.054-.516l-.108.922 4.106 3.594-9.872-.002c-2.342 0-4.447 1.301-5.533 3.472-.429.858-.647 1.774-.647 2.722v2.676c0 1.048.558 2.034 1.457 2.572l.543.326v4.335c0 2.137.832 4.146 2.343 5.657l3.743 3.743-1.086 1.085c-.645.645-1 1.502-1 2.414s.355 1.77 1 2.414l.586.586c.645.645 1.502 1 2.414 1s1.77-.355 2.414-1l1.11-1.11c.821.707 1.846 1.11 2.94 1.11.009 0 .017-.003.026-.003v.003h27.51v-20.234l.543-.326c.899-.539 1.457-1.524 1.457-2.572v-2.676c0-.948-.218-1.864-.685-2.799-.197-.393-.438-.756-.71-1.094zm-8.605 17.115 1.586 1.586-1.586 1.586zm3 3 1.586 1.586h-3.172zm3 .172-1.586-1.586 1.586-1.586zm0-9.172v3.172l-1.586-1.586zm-3 3 1.586 1.586-1.586 1.586-1.586-1.586zm-3-2.722c.133.043.265.09.402.124l1.184 1.184-1.586 1.586zm-18 .722 6.586 6.586-1.586 1.586-6.586-6.586zm-1 5 2.586 2.586-1.086 1.086-2.586-2.586zm-5.414-.414-1.586 1.586-1.586-1.586 1.586-1.586.879.879zm-7.586-6.063c.367.199.746.369 1.136.513l-1.136 1.136zm4.586 3.063-1.586 1.586-1.586-1.586 1.586-1.586zm-3 3-.516.516c-.404-.58-.696-1.223-.872-1.904zm1.414 1.414 1.586 1.586-.586.586-1.586-1.586zm3-5.828-.714-.714c.243-.048.481-.11.714-.187zm8.855-4.855c-.804-.198-1.565-.507-2.268-.904l1.413-1.413 1.586 1.586zm2.145-2.145-1.586-1.586 1.586-1.586 1.586 1.586zm-3-3-1.586-1.586 1-1h.924l.498.436c.238.208.494.39.76.554zm6 0-.62-.62c.52-.032 1.029-.125 1.521-.28zm7.117-16.031-1.117 1.264v-2.071c.357-.11.69-.218.985-.318zm-5.117 5.788v-5.624c.691-.117 1.357-.267 2-.424v3.786zm4.734-9.044.011.097c-1.559.547-4.939 1.604-7.745 1.604s-6.186-1.057-7.746-1.604l.011-.097c.356-3.021 2.918-5.299 5.96-5.299h3.551c3.041 0 5.603 2.278 5.958 5.299zm-6.734 3.662v6.87c-.323.099-.655.169-1 .169s-.677-.07-1-.169v-6.869c.336.022.671.038 1 .038s.664-.016 1-.039zm-4-.242v5.624l-1.967-2.225-.025-3.814c.638.157 1.308.3 1.992.415zm-3.982 1.121-1.136-1.285.132-1.125c.298.101.629.208.99.319zm4.982-11.84c0-1.103.897-2 2-2s2 .897 2 2v.01c-.075-.002-.149-.01-.225-.01h-3.551c-.075 0-.149.008-.224.01zm-8.678 15.201-.067.052c-1.01.489-2.133.747-3.255.747-1.022 0-1.984-.398-2.707-1.121l-.203-.203c1.388-.44 2.638-1.313 3.551-2.531.877-1.168 1.359-2.616 1.359-4.077v-7.239c0-1.557.606-3.021 1.707-4.122s2.564-1.707 4.122-1.707c1.185 0 2.36.392 3.309 1.103l.713.535c-.365.234-.681.531-.952.868-1.073-.97-2.443-1.506-3.899-1.506v2c1.022 0 1.984.398 2.707 1.121l.347.347c-.024.176-.054.35-.054.532v.316c-3.021.875-5.337 3.487-5.721 6.75zm1.733 2.393.515-4.375 4.361 4.934c1.027 1.174 2.51 1.847 4.069 1.847s3.042-.673 4.066-1.843l4.365-4.938.515 4.375-6.098 5.336c-1.577 1.379-4.118 1.379-5.694 0zm2.531 10.406-1.637 1.637c-.555-.506-1.053-1.074-1.468-1.704l1.519-1.519zm-4.001-4.001 1.001 1.001-1.044 1.044c-.235-.652-.404-1.335-.483-2.046zm-10.585 4.193c0-.635.146-1.25.474-1.904.707-1.413 2.126-2.29 3.706-2.29l3.87.001c.214 2.366 1.182 4.512 2.659 6.209l-1.081 1.802c-.736 1.227-2.084 1.99-3.516 1.99-1.201 0-2.38-.327-3.409-.944l-2.218-1.331c-.299-.18-.485-.508-.485-.857zm7 24.394-.586-.586c-.263-.263-.414-.628-.414-1s.151-.737.414-1l1.086-1.086 2.586 2.586-1.086 1.086c-.526.526-1.474.526-2 0zm5.671-1.329-5.257-5.257 3.586-3.586 5.257 5.257c.479.479.743 1.116.743 1.793 0 1.398-1.138 2.536-2.536 2.536-.677 0-1.314-.264-1.793-.743zm16.329.743v-3.343c0-.79.32-1.563.878-2.121l2.122-2.122v7.586zm5 0v-4h6v4z"/></g></g></svg>