<?xml version="1.0" encoding="iso-8859-1"?>
<!-- Generator: Adobe Illustrator 19.0.0, SVG Export Plug-In . SVG Version: 6.00 Build 0)  -->
<svg version="1.1" id="Capa_1" xmlns="http://www.w3.org/2000/svg" xmlns:xlink="http://www.w3.org/1999/xlink" x="0px" y="0px"
	 viewBox="0 0 496 496" style="enable-background:new 0 0 496 496;" xml:space="preserve">
<g>
	<g>
		<g>
			<path d="M447.82,390.192c-5.376-32.232-27.976-58.68-58.976-69.016l-68.84-22.944V288h-16v13.168
				c-4.432,4.896-20.168,18.832-56,18.832c-35.832,0-51.568-13.936-56-18.832V288h-16v10.232l-68.832,22.944
				c-31,10.336-53.6,36.784-58.976,69.016L30.556,496h434.888L447.82,390.192z M248.004,336c25.696,0,43.112-6.536,54.232-13.248
				c-4.424,13.488-17.12,19.872-30.56,26.432c-8.432,4.112-17.4,8.608-23.664,15.216c-6.264-6.608-15.232-11.104-23.664-15.216
				c-13.448-6.552-26.144-12.944-30.56-26.432C204.892,329.464,222.308,336,248.004,336z M49.452,480l14.52-87.168
				c4.4-26.376,22.888-48.008,48.256-56.472l10.392-3.464c-7.12,22.48-17.808,69.256-18.52,147.104H49.452z M296.028,480H199.98
				c-0.016-5.68-0.072-10.984-0.144-16h40.168v-40h16v40h40.168C296.1,469.016,296.052,474.32,296.028,480z M312.028,480
				c0.2-48.152,2.224-70.448,4.192-92c0.808-8.76,1.584-17.376,2.232-27.488l-15.968-1.024c-0.632,9.952-1.408,18.432-2.192,27.056
				C298.796,403,297.26,419.92,296.5,448h-24.496v-40h-48v40h-24.488c-0.76-28.08-2.296-45-3.792-61.456
				c-0.792-8.624-1.56-17.104-2.192-27.056l-15.968,1.024c0.648,10.112,1.432,18.72,2.232,27.488c1.96,21.552,3.984,43.848,4.192,92
				h-63.88c0.896-94.912,17.184-142.064,21.824-153.544l34.224-11.408c1.52,29.096,24.32,40.304,41.184,48.512
				c14.472,7.064,22.664,11.488,22.664,20.44v8h16v-8c0-8.952,8.192-13.376,22.672-20.432c16.856-8.216,39.664-19.416,41.184-48.512
				l34.224,11.4c4.64,11.472,20.928,58.632,21.824,153.544H312.028z M391.908,480c-0.712-77.848-11.392-124.624-18.52-147.104
				l10.392,3.464c25.368,8.456,43.856,30.096,48.256,56.472L446.556,480H391.908z"/>
			<path d="M147.54,215.552c4.08,14.04,11.616,26.912,22.24,37.536l31.192,31.2c7.552,7.552,17.6,11.712,28.288,11.712h37.488
				c10.688,0,20.736-4.16,28.288-11.712l31.192-31.2c10.624-10.624,18.152-23.504,22.24-37.536
				c19.936-2.256,35.536-19.024,35.536-39.552c0-13.128-6.448-24.704-16.248-32h0.248v-24c0-66.168-53.832-120-120-120
				s-120,53.832-120,120v24h0.248c-9.8,7.296-16.248,18.872-16.248,32C112.004,196.528,127.604,213.296,147.54,215.552z
				 M314.916,241.776l-31.192,31.2c-4.536,4.528-10.56,7.024-16.976,7.024H229.26c-6.416,0-12.448-2.496-16.976-7.024l-31.192-31.2
				c-13.592-13.6-21.088-31.68-21.088-50.912V152h27.16c25.8,0,50.064-11.368,66.576-31.184
				C262.636,110.128,275.724,104,289.636,104c22.944,0,42.328,16.424,46.104,39.04l0.264,47.824
				C336.004,210.096,328.508,228.176,314.916,241.776z M368.004,176c0,10.552-6.896,19.44-16.376,22.64
				c0.224-2.568,0.376-5.16,0.376-7.776v-37.392C361.292,156.784,368.004,165.584,368.004,176z M144.004,120
				c0-57.344,46.656-104,104-104s104,46.656,104,104v16.808c-0.416-0.088-0.864-0.056-1.28-0.128
				C344.22,108.264,319.148,88,289.636,88c-18.672,0-36.24,8.224-48.192,22.576C227.98,126.736,208.188,136,187.164,136h-43.16V120z
				 M144.004,153.472v37.392c0,2.616,0.152,5.208,0.376,7.784c-9.48-3.208-16.376-12.096-16.376-22.648
				C128.004,165.584,134.716,156.784,144.004,153.472z"/>
		</g>
	</g>
</g>
<g>
</g>
<g>
</g>
<g>
</g>
<g>
</g>
<g>
</g>
<g>
</g>
<g>
</g>
<g>
</g>
<g>
</g>
<g>
</g>
<g>
</g>
<g>
</g>
<g>
</g>
<g>
</g>
<g>
</g>
</svg>
