<svg id="Layer_1" enable-background="new 0 0 480.005 480.005" height="512" viewBox="0 0 480.005 480.005" width="512" xmlns="http://www.w3.org/2000/svg">
    <path fill="#fff" d="m215.158 309.535-1.84-1.84c.68.468 1.353 1.139 1.84 1.84zm-44.681-44.68 1.84 1.84c-.467-.682-1.142-1.355-1.84-1.84zm194.102-125.946c-9.185-6.12-17.46-14.473-23.435-23.454-2.808-4.22-8.75-4.846-12.334-1.262l-137.526 137.535c-3.124 3.124-3.124 8.189 0 11.314l25.687 25.687c3.124 3.124 8.189 3.124 11.314 0l137.521-137.511c3.57-3.572 2.976-9.509-1.227-12.309zm-213.342 106.706c-15.617-15.612-41.02-15.61-56.63 0l-92.26 92.26c-3.12 3.12-3.12 8.19 0 11.31 3.152 3.133 8.167 3.133 11.32 0l92.25-92.25c9.38-9.38 24.63-9.38 34 0l14.51 14.51-109.25 109.25c-5.053 5.053-1.411 13.66 5.65 13.66 2.05 0 4.1-.78 5.66-2.34l109.26-109.25 31.51 31.51-109.26 109.25c-5.059 5.059-1.407 13.65 5.66 13.65 2.05 0 4.09-.78 5.66-2.34l109.25-109.25 14.51 14.51c9.38 9.37 9.38 24.62 0 34l-92.25 92.25c-3.13 3.13-3.13 8.19 0 11.32 3.127 3.126 8.197 3.113 11.31 0l92.26-92.26c15.61-15.61 15.612-41.012 0-56.63-23.964-23.972-55.916-55.925-83.16-83.16zm321.73-155.93-28.64 28.64c-22.04 22.062-57.774 22.078-79.83 0l-2.81-2.81c-22.01-22.01-22.01-57.82 0-79.83l28.64-28.64c9.353-9.374 24.556-9.414 33.97 0l48.67 48.67c9.414 9.434 9.333 24.637 0 33.97zm-35.562 12.947c3.127-3.124 3.128-8.191.003-11.317l-48.706-48.706c-3.123-3.123-8.186-3.124-11.311-.003l-4.393 4.389c-15.77 15.77-15.77 41.43 0 57.21l2.261 2.261c16.698 16.695 42.129 16.179 57.759.549zm-60.018-82.657c-.107.108-.172.182.1-.09-.04.03-.07.06-.1.09z" />
</svg>