<svg id="Capa_1" enable-background="new 0 0 512 512" height="512" viewBox="0 0 512 512" width="512" xmlns="http://www.w3.org/2000/svg">
    <g>
        <path fill="#fff" d="m141.061 250.697c-4.628-4.628-10.782-7.177-17.327-7.177s-12.699 2.549-17.328 7.177c-9.554 9.554-9.554 25.101 0 34.655l60.121 60.121c2.929 2.929 7.678 2.929 10.606 0 2.929-2.929 2.929-7.677 0-10.606l-60.121-60.121c-3.706-3.706-3.706-9.736 0-13.442 1.795-1.795 4.182-2.784 6.721-2.784s4.925.989 6.721 2.784l71.34 71.34c19.78 19.78 30.673 46.079 30.673 74.052v97.804c0 4.142 3.358 7.5 7.5 7.5s7.5-3.358 7.5-7.5v-97.805c0-31.98-12.454-62.046-35.067-84.659z" />
        <path fill="#fff" d="m70.338 301.668c-8.419-8.291-14.75-18.628-18.308-29.894l-36.571-115.809c-.819-2.595-.539-5.332.789-7.707 1.329-2.375 3.514-4.046 6.153-4.706 4.677-1.17 9.445 1.198 11.343 5.626l42.305 98.712c1.632 3.807 6.042 5.571 9.848 3.939 3.807-1.632 5.571-6.041 3.939-9.848l-42.305-98.712c-4.814-11.232-16.913-17.232-28.768-14.27-6.598 1.649-12.287 6-15.607 11.936-3.32 5.936-4.05 13.06-2.001 19.546l36.571 115.809c4.292 13.593 11.93 26.064 22.087 36.066l77.988 76.792c9.218 9.077 14.505 21.702 14.505 34.639v80.713c0 4.142 3.358 7.5 7.5 7.5s7.5-3.358 7.5-7.5v-80.712c0-16.929-6.918-33.45-18.981-45.327z" />
        <path fill="#fff" d="m405.594 285.352c9.554-9.554 9.554-25.1 0-34.655-4.628-4.628-10.782-7.177-17.328-7.177s-12.699 2.549-17.327 7.177l-71.34 71.34c-22.613 22.613-35.067 52.679-35.067 84.659v97.804c0 4.142 3.358 7.5 7.5 7.5s7.5-3.358 7.5-7.5v-97.805c0-27.973 10.894-54.272 30.673-74.052l71.34-71.34c1.795-1.795 4.182-2.784 6.721-2.784s4.926.989 6.721 2.784c3.706 3.706 3.706 9.736 0 13.442l-60.121 60.121c-2.929 2.929-2.929 7.677 0 10.606s7.678 2.929 10.606 0z" />
        <path fill="#fff" d="m508.843 140.936c-3.32-5.936-9.009-10.286-15.607-11.936-11.853-2.963-23.954 3.038-28.768 14.27l-42.305 98.712c-1.632 3.807.132 8.216 3.939 9.848 3.807 1.631 8.216-.132 9.848-3.939l42.305-98.712c1.898-4.428 6.669-6.795 11.343-5.626 2.64.66 4.825 2.331 6.153 4.706s1.608 5.112.789 7.707l-36.57 115.808c-3.558 11.267-9.889 21.604-18.308 29.894l-77.988 76.792c-12.062 11.877-18.981 28.399-18.981 45.327v80.713c0 4.142 3.358 7.5 7.5 7.5s7.5-3.358 7.5-7.5v-80.712c0-12.937 5.287-25.562 14.505-34.639l77.988-76.792c10.157-10.002 17.795-22.473 22.087-36.065l36.571-115.809c2.049-6.487 1.319-13.611-2.001-19.547z" />
        <path fill="#fff" d="m175.839 119.21h48.613v152.823c0 8.556 6.96 15.516 15.516 15.516h32.064c8.556 0 15.516-6.96 15.516-15.516v-152.823h48.613c8.556 0 15.516-6.96 15.516-15.516v-32.065c0-8.556-6.96-15.516-15.516-15.516h-48.613v-40.597c0-8.556-6.96-15.516-15.516-15.516h-32.064c-8.556 0-15.516 6.96-15.516 15.516v40.597h-48.613c-8.556 0-15.516 6.961-15.516 15.516v32.064c0 8.556 6.96 15.517 15.516 15.517zm-.516-47.581c0-.285.231-.516.516-.516h56.113c4.142 0 7.5-3.358 7.5-7.5v-48.097c0-.285.231-.516.516-.516h32.064c.285 0 .516.231.516.516v48.097c0 4.142 3.358 7.5 7.5 7.5h56.113c.285 0 .516.232.516.516v32.064c0 .285-.231.516-.516.516h-56.113c-4.142 0-7.5 3.358-7.5 7.5v160.323c0 .285-.231.516-.516.516h-32.064c-.285 0-.516-.231-.516-.516v-160.322c0-4.142-3.358-7.5-7.5-7.5h-56.113c-.285 0-.516-.231-.516-.516z" />
    </g>
</svg>