<svg id="Layer_1" enable-background="new 0 0 510 510" height="512" viewBox="0 0 510 510" width="512" xmlns="http://www.w3.org/2000/svg"><g><path fill="#fff" d="m60 240h30v45h-30z"/><path fill="#fff" d="m60 315h30v45h-30z"/><path fill="#fff" d="m60 390h30v45h-30z"/><path fill="#fff" d="m480 135v30h-90v-45h30v-120h-90v30h-30v-30h-90v30h-30v-30h-90v120h30v45h-90v-30h-30v375h510v-375zm-360-105h30v30h90v-30h30v30h90v-30h30v60h-270zm-90 450v-285h90v285zm195 0v-90h60v90zm90 0v-120h-120v120h-45v-360h210v360zm75 0v-285h90v285z"/><path fill="#fff" d="m420 240h30v45h-30z"/><path fill="#fff" d="m420 315h30v45h-30z"/><path fill="#fff" d="m420 390h30v45h-30z"/><path fill="#fff" d="m300 195c-2.478-59.713-87.544-59.667-90 0v45h-30v30h150v-30h-30zm-60 45v-45c.826-19.904 29.182-19.889 30 0v45z"/></g></svg>