<?xml version="1.0" encoding="UTF-8"?>
<svg xmlns="http://www.w3.org/2000/svg" viewBox="0 0 64 64" width="512" height="512"><g id="Outline"><path fill="#fff" d="M32,14a3,3,0,0,0-3,3v3a1,1,0,0,0,1,1h4a1,1,0,0,0,1-1V17A3,3,0,0,0,32,14Zm1,5H31V17a1,1,0,0,1,2,0Z"/><path fill="#fff" d="M61,30H58V25h1a1,1,0,0,0,0-2H48V17h2v3a1,1,0,0,0,1,1h4a1,1,0,0,0,1-1V17h2v3a1,1,0,0,0,2,0V16a1,1,0,0,0-1-1H58V12a.993.993,0,0,0-.132-.5l-4-7a1.04,1.04,0,0,0-1.736,0l-4,7A.993.993,0,0,0,48,12v3H47a1,1,0,0,0-1,1v.235L43.868,12.5a1.04,1.04,0,0,0-1.736,0L41,14.485V12h1a1,1,0,0,0,1-1V3a1,1,0,0,0-1-1H38a1,1,0,0,0-1,1V7a1,1,0,0,0,2,0V4h2v6H23V4h2V7a1,1,0,0,0,1,1h4a1,1,0,0,0,1-1V4h2V7a1,1,0,0,0,2,0V3a1,1,0,0,0-1-1H30a1,1,0,0,0-1,1V6H27V3a1,1,0,0,0-1-1H22a1,1,0,0,0-1,1v8a1,1,0,0,0,1,1v3.235L19.868,11.5a1.04,1.04,0,0,0-1.736,0l-4,7A.993.993,0,0,0,14,19v3H13a1,1,0,0,0-1,1v.235L9.868,19.5a1.04,1.04,0,0,0-1.736,0l-4,7A.993.993,0,0,0,4,27v3H3a1,1,0,0,0-1,1v8a1,1,0,0,0,1,1H4V57a1,1,0,0,0,2,0V56H7a1,1,0,0,0,0-2H6V51H7a1,1,0,0,0,0-2H6V46H7a1,1,0,0,0,0-2H6V40h5V60H5a1,1,0,0,0,0,2H48.122a1,1,0,0,0,0-2H37V55a5,5,0,0,0-10,0v5H13V40h2a1,1,0,0,0,1-1V36H36a1,1,0,0,0,0-2H18.169l13.949-9.776L45.868,34H40a1,1,0,0,0,0,2h8v2a1,1,0,0,0-1,1v3H44V39a1,1,0,0,0-1-1H39a1,1,0,0,0-1,1v3H35V39a1,1,0,0,0-1-1H30a1,1,0,0,0-1,1v3H26V39a1,1,0,0,0-1-1H21a1,1,0,0,0-1,1v3H16a1,1,0,0,0,0,2h5a1,1,0,0,0,1-1V40h2v3a1,1,0,0,0,1,1h5a1,1,0,0,0,1-1V40h2v3a1,1,0,0,0,1,1h5a1,1,0,0,0,1-1V40h2v3a1,1,0,0,0,1,1h5a1,1,0,0,0,1-1V40h2V61a1,1,0,0,0,1,1h7a1,1,0,0,0,1-1V43a1,1,0,0,0-2,0v1H57a1,1,0,0,0,0,2h1v3H57a1,1,0,0,0,0,2h1v3H57a1,1,0,0,0,0,2h1v4H53V40h8a1,1,0,0,0,1-1V31A1,1,0,0,0,61,30ZM53,7.016,55.277,11H50.723ZM50,13h6v2H55a1,1,0,0,0-1,1v3H52V16a1,1,0,0,0-1-1H50ZM29,55a3,3,0,0,1,6,0v5H29ZM56,34H54V29a1,1,0,0,0-2,0v1H50V25h6ZM40,25v2.374l-2-1.422V25Zm8,0v8.062L42.287,29H45a1,1,0,0,0,1-1V25Zm-3-2a1,1,0,0,0-1,1v3H42V24a1,1,0,0,0-1-1H40V21h6v2Zm-2-7.984L45.277,19H40.723Zm-24-1L21.277,18H16.723ZM16,20h6v2H21a1,1,0,0,0-1,1v3H18V23a1,1,0,0,0-1-1H16Zm-2,4h2v3a1,1,0,0,0,1,1h4a1,1,0,0,0,1-1V24h2v3.471l-8,5.607V31a1,1,0,0,0-1-1H14ZM9,22.016,11.277,26H6.723ZM6,28h6v2H11a1,1,0,0,0-1,1v3H8V31a1,1,0,0,0-1-1H6Zm8,10H4V32H6v3a1,1,0,0,0,1,1h4a1,1,0,0,0,1-1V32h2ZM31.548,22.181,26,26.07V23a1,1,0,0,0-1-1H24V12H39v5.985L38.132,19.5A.993.993,0,0,0,38,20v3H37a1,1,0,0,0-1,1v.53l-3.3-2.345A1,1,0,0,0,31.548,22.181ZM60,38H50V32h2v3a1,1,0,0,0,1,1h4a1,1,0,0,0,1-1V32h2Z"/><path fill="#fff" d="M15,49v6a1,1,0,0,0,2,0V49a1,1,0,0,0-2,0Z"/><path fill="#fff" d="M19,49v6a1,1,0,0,0,2,0V49a1,1,0,0,0-2,0Z"/><path fill="#fff" d="M23,49v6a1,1,0,0,0,2,0V49a1,1,0,0,0-2,0Z"/><path fill="#fff" d="M39,49v6a1,1,0,0,0,2,0V49a1,1,0,0,0-2,0Z"/><path fill="#fff" d="M43,49v6a1,1,0,0,0,2,0V49a1,1,0,0,0-2,0Z"/><path fill="#fff" d="M48,48a1,1,0,0,0-1,1v6a1,1,0,0,0,2,0V49A1,1,0,0,0,48,48Z"/><circle cx="30" cy="47" r="1"/><circle cx="34" cy="47" r="1"/><path fill="#fff" d="M31,28v2a1,1,0,0,0,2,0V28a1,1,0,0,0-2,0Z"/><path fill="#fff" d="M36,29a1,1,0,0,0-1,1v1a1,1,0,0,0,2,0V30A1,1,0,0,0,36,29Z"/><path fill="#fff" d="M27,30v1a1,1,0,0,0,2,0V30a1,1,0,0,0-2,0Z"/></g></svg>
