<svg id="Capa_1" enable-background="new 0 0 512.007 512.007" height="200" viewBox="0 0 512.007 512.007" width="200" xmlns="http://www.w3.org/2000/svg"><g><g><g><path fill="#fff" d="m71.897 324.107c-.084-1.161.481-1.956.827-2.327.355-.383 1.135-1.025 2.353-1.025h94.961c2.828 32.692 24.094 61.126 54.922 73.017 3.493 1.347 6.313 3.865 7.941 7.09l6.871 13.606c3.11 6.16 9.33 9.987 16.231 9.987s13.121-3.827 16.231-9.987l6.872-13.607c1.628-3.224 4.447-5.742 7.94-7.089 30.827-11.89 52.094-40.324 54.922-73.017h20.809c4.143 0 7.5-3.358 7.5-7.5s-3.357-7.5-7.5-7.5h-69.676v-10.794c35.465-14.631 60.493-49.575 60.493-90.26v-3.891c3.423 1.158 7.035 1.77 10.688 1.77 18.4 0 33.37-14.97 33.37-33.37 0-10.243-4.64-19.419-11.924-25.547 4.081-9.266 6.154-19.137 6.154-29.392 0-19.307-7.442-37.464-20.952-51.22-2.749-35.225-32.271-63.051-68.19-63.051h-103.431c-32.238 0-58.466 26.228-58.466 58.466 0 1.548.08 3.09.203 4.627-13.497 13.747-20.923 31.83-20.923 51.179 0 10.256 2.073 20.126 6.154 29.392-7.284 6.128-11.924 15.304-11.924 25.547 0 18.4 14.97 33.37 33.37 33.37 3.652 0 7.264-.612 10.688-1.77v3.891c0 40.685 25.028 75.629 60.493 90.26v10.794h-143.827c-5.042 0-9.903 2.117-13.337 5.809-3.415 3.672-5.166 8.639-4.804 13.629 2.99 41.204 15.815 77.564 37.089 105.153 1.478 1.916 3.699 2.92 5.945 2.92 1.599 0 3.21-.509 4.574-1.561 3.28-2.53 3.889-7.239 1.359-10.519-24.598-31.902-32.069-70.401-34.006-97.08zm292.387-136.527c-3.9 0-7.569-1.199-10.688-3.451v-29.851c3.108-2.251 6.777-3.449 10.688-3.449 10.129 0 18.37 8.245 18.37 18.38 0 10.13-8.241 18.371-18.37 18.371zm8.065-50.759c-2.584-.644-5.284-.991-8.065-.991-3.655 0-7.267.611-10.688 1.767v-7.678c9.904-1.351 17.567-9.843 17.567-20.111v-20.734c3.74 7.763 5.721 16.326 5.721 25.197.001 7.858-1.526 15.427-4.535 22.55zm-237.226-22.55c0-12.021 3.6-23.431 10.294-33.061 2.995 7.205 7.396 13.821 12.994 19.37v37.02c-3.423-1.158-7.035-1.77-10.688-1.77-2.781 0-5.481.347-8.065.991-3.008-7.122-4.535-14.691-4.535-22.55zm12.6 73.309c-10.129 0-18.37-8.241-18.37-18.37 0-10.135 8.241-18.38 18.37-18.38 3.9 0 7.569 1.199 10.688 3.451v29.849c-3.119 2.251-6.788 3.45-10.688 3.45zm25.688 17.121v-91.876c16.775 11.247 36.504 17.302 57.103 17.302h18.744c4.143 0 7.5-3.358 7.5-7.5s-3.357-7.5-7.5-7.5h-18.744c-23.044 0-44.817-8.863-61.31-24.957-8.491-8.286-13.36-19.841-13.36-31.705 0-23.967 19.499-43.466 43.466-43.466h103.43c29.458 0 53.424 23.966 53.424 53.425v41.382c0 2.934-2.387 5.32-5.32 5.32h-66.191c-4.143 0-7.5 3.358-7.5 7.5s3.357 7.5 7.5 7.5h53.944v74.574c0 45.542-37.051 82.593-82.593 82.593s-82.593-37.05-82.593-82.592zm52.993 128.948c4.143 0 7.5-3.358 7.5-7.5v-26.38c7.103 1.651 14.501 2.525 22.1 2.525s14.996-.874 22.1-2.525v26.38c0 4.142 3.357 7.5 7.5 7.5s7.5-3.358 7.5-7.5v-5.394h33.788c-2.778 26.457-20.18 49.355-45.242 59.021-6.968 2.688-12.626 7.774-15.932 14.323l-6.871 13.606c-.769 1.522-2.111 1.749-2.843 1.749s-2.074-.227-2.843-1.749l-6.87-13.605c-3.307-6.55-8.965-11.637-15.933-14.324-25.061-9.667-42.464-32.565-45.241-59.021h33.787v5.394c0 4.142 3.357 7.5 7.5 7.5z"/><path fill="#fff" d="m450.267 311.564c-3.434-3.692-8.295-5.809-13.337-5.809h-38.757c-4.143 0-7.5 3.358-7.5 7.5s3.357 7.5 7.5 7.5h38.757c1.218 0 1.997.642 2.353 1.025.346.371.911 1.167.827 2.327-2.328 32.088-12.276 77.422-46.442 111.165-33.786 33.365-69.274 48.36-93.096 55.064-25.917 7.293-44.072 6.648-44.235 6.644-.211-.009-.438-.009-.65 0-.64.026-64.735 1.976-126.216-51.406-3.128-2.716-7.863-2.382-10.58.746-2.716 3.127-2.382 7.864.746 10.58 60.11 52.193 121.403 55.107 134.314 55.107.964 0 1.658-.016 2.063-.029 2.818.081 21.568.318 47.951-7.015 25.699-7.143 63.951-23.179 100.243-59.018 37.482-37.019 48.349-86.098 50.863-120.752.362-4.99-1.389-9.957-4.804-13.629z"/><path fill="#fff" d="m213.636 168.781h-.105c-.013 0-.024 0-.036 0-4.126 0-7.479 3.335-7.499 7.465-.02 4.142 3.323 7.516 7.465 7.535h.105.036c4.126 0 7.479-3.335 7.499-7.465.02-4.142-3.323-7.516-7.465-7.535z"/><path fill="#fff" d="m298.371 183.781h.105.036c4.126 0 7.479-3.335 7.499-7.465.02-4.142-3.323-7.516-7.465-7.535h-.105c-.013 0-.024 0-.036 0-4.126 0-7.479 3.335-7.499 7.465-.02 4.142 3.323 7.516 7.465 7.535z"/><path fill="#fff" d="m285.464 212.499v-6.661c0-4.142-3.357-7.5-7.5-7.5s-7.5 3.358-7.5 7.5v6.661c0 7.973-6.486 14.46-14.46 14.46s-14.46-6.487-14.46-14.46v-6.661c0-4.142-3.357-7.5-7.5-7.5s-7.5 3.358-7.5 7.5v6.661c0 16.244 13.216 29.46 29.46 29.46s29.46-13.216 29.46-29.46z"/><path fill="#fff" d="m273.226 439.902c-2.93-2.929-7.678-2.929-10.607 0l-6.615 6.615-6.615-6.615c-2.93-2.929-7.678-2.929-10.607 0s-2.929 7.678 0 10.606l6.616 6.616-6.616 6.616c-2.929 2.929-2.929 7.678 0 10.606 1.465 1.464 3.385 2.197 5.304 2.197s3.839-.732 5.304-2.197l6.615-6.615 6.615 6.615c1.465 1.464 3.385 2.197 5.304 2.197s3.839-.732 5.304-2.197c2.929-2.929 2.929-7.678 0-10.606l-6.616-6.616 6.616-6.616c2.927-2.928 2.927-7.677-.002-10.606z"/></g></g></g></svg>