<svg height="496pt" viewBox="-72 0 496 496" width="496pt" xmlns="http://www.w3.org/2000/svg">
    <path fill="#fff" d="m236.808594 188.222656c6.703125-4.261718 11.191406-11.703125 11.191406-20.222656 0-6.167969-2.40625-11.742188-6.238281-16 3.839843-4.257812 6.238281-9.832031 6.238281-16 0-10.335938-6.601562-19.078125-15.777344-22.457031 1.121094-27.640625 9.296875-54.488281 23.992188-78.007813l14.5625-23.296875c1.542968-2.46875 1.621094-5.574219.214844-8.117187-1.40625-2.546875-4.089844-4.121094-6.992188-4.121094h-43.160156c-16.59375 0-32.160156 6.679688-43.640625 18.152344-10.527344-11.433594-25.535157-18.152344-41.199219-18.152344h-48c-3.230469 0-6.160156 1.953125-7.390625 4.9375-1.242187 2.992188-.554687 6.429688 1.734375 8.71875 24.28125 24.289062 37.65625 56.574219 37.65625 90.910156v8.90625c-9.289062 3.3125-16 12.113282-16 22.527344 0 6.167969 2.40625 11.742188 6.238281 16-3.839843 4.257812-6.238281 9.832031-6.238281 16 0 8.519531 4.488281 15.960938 11.191406 20.222656-65.175781 26.496094-115.191406 92.664063-115.191406 163.777344 0 83.441406 74.015625 144 176 144s176-60.558594 176-144c0-71.113281-50.015625-137.28125-115.191406-163.777344zm-131.089844-172.222656h30.28125c12.519531 0 24.488281 5.984375 32 16 5.160156 6.871094 8 15.398438 8 24v16h16v-16c0-8.425781-2.046875-16.742188-5.695312-24.3125 8.65625-9.902344 21.175781-15.6875 34.535156-15.6875h28.71875l-6.902344 11.054688c-16.015625 25.632812-25.007812 54.847656-26.375 84.945312h-80.28125v-7.433594c0-32.476562-10.640625-63.335937-30.28125-88.566406zm22.28125 112h96c4.414062 0 8 3.59375 8 8s-3.585938 8-8 8h-96c-4.414062 0-8-3.59375-8-8s3.585938-8 8-8zm0 48c-4.414062 0-8-3.59375-8-8s3.585938-8 8-8h96c4.414062 0 8 3.59375 8 8s-3.585938 8-8 8zm48 304c-94.199219 0-160-52.640625-160-128 0-75.527344 68.425781-160 160-160 4.441406 0 8.800781.257812 13.121094.640625-24.023438 29.046875-37.121094 65.191406-37.121094 103.359375h16c0-37.671875 14.246094-73.089844 40-100.382812 25.742188 27.285156 40 62.703124 40 100.382812h16c0-33.039062-9.847656-64.535156-28.054688-91.246094 59.910157 26.382813 100.054688 89.414063 100.054688 147.246094 0 75.359375-65.800781 128-160 128zm0 0" />
    <path fill="#fff" d="m304 352c0 66.320312-64.289062 96-128 96v16c86.136719 0 144-45.007812 144-112zm0 0" />
</svg>